<svg xmlns="http://www.w3.org/2000/svg" viewBox="0 0 100 100">
  <!-- Horse silhouette in blue #1440FF -->
  <path fill="#1440FF" d="M72 10c-2 0-4 1-5 2l-3-2c-2-1-5-1-7 1l-2 2c-3-1-6 0-8 2l-2 3c-2 0-4 1-5 3l-1 4c-2 1-3 3-3 5v3l-2 1c-2 1-3 3-2 5l1 3c-4 5-6 11-6 17v8c0 2 1 3 3 3h4c2 0 3-1 3-3v-8c0-3 1-6 2-8l2 2v14c0 2 1 3 3 3h4c2 0 3-1 3-3V55l2-1 2 1v16c0 2 1 3 3 3h4c2 0 3-1 3-3V53l2 2v12c0 2 1 3 3 3h4c2 0 3-1 3-3V55c2-3 3-7 3-11V34c0-2-1-4-3-5V24c0-3-1-6-3-8 2-1 3-3 3-5 0-1-1-1-1-1zm-4 4c0 1-1 2-2 2s-2-1-2-2 1-2 2-2 2 1 2 2z"/>
</svg>
